<svg width="76" height="22" viewBox="0 0 76 22" fill="none" xmlns="http://www.w3.org/2000/svg">
<path d="M35.0922 8.74688C34.96 9.39059 34.6296 10.0343 34.1009 10.5493C33.6383 10.9998 33.1096 11.3217 32.5148 11.4504C32.7791 12.0298 32.9774 12.6735 32.9774 13.3172C32.9774 15.6989 30.9948 17.5656 28.6156 17.5656C26.1704 17.5656 24.2539 15.6345 24.2539 13.3172C24.2539 10.9355 26.2365 9.06873 28.6156 9.06873C29.3426 9.06873 30.0696 9.26184 30.6643 9.5837C31.4574 9.96992 32.5148 9.77681 33.0435 9.06873C33.6383 8.23192 33.5061 7.13762 32.647 6.55828C32.5809 6.49391 32.5148 6.42954 32.3826 6.42954C31.2591 5.85021 29.9374 5.52836 28.6156 5.52836C24.1217 5.52836 20.4869 9.06873 20.4869 13.4459C20.4869 17.8231 24.1217 21.3635 28.6156 21.3635C33.1096 21.3635 36.7443 17.8231 36.7443 13.4459C36.6783 11.6436 36.0835 10.0343 35.0922 8.74688Z" fill="#FFD10D"/>
<path d="M2.18087 21.2992C3.37043 21.2992 4.36174 20.398 4.36174 19.3037V12.9954H13.3496V19.3037C13.3496 20.398 14.3409 21.2992 15.5304 21.2992C16.72 21.2992 17.7113 20.398 17.7113 19.3037V2.63172C17.7113 1.53742 16.72 0.63623 15.5304 0.63623C14.3409 0.63623 13.3496 1.53742 13.3496 2.63172V8.94003H4.36174V2.63172C4.36174 1.53742 3.37043 0.63623 2.18087 0.63623C0.991304 0.63623 0 1.53742 0 2.63172V19.2393C0 20.398 0.991304 21.2992 2.18087 21.2992ZM52.7374 19.2393C52.7374 20.3336 53.7287 21.2348 54.9183 21.2348C56.1078 21.2348 57.0991 20.3336 57.0991 19.2393V2.63172C57.0991 1.53742 56.1078 0.63623 54.9183 0.63623C53.7287 0.63623 52.7374 1.53742 52.7374 2.63172V8.94003H43.7496V2.63172C43.7496 1.53742 42.7583 0.63623 41.5687 0.63623C40.3791 0.63623 39.3878 1.53742 39.3878 2.63172V19.2393C39.3878 20.3336 40.3791 21.2348 41.5687 21.2348C42.7583 21.2348 43.7496 20.3336 43.7496 19.2393V12.931H52.7374V19.2393ZM67.8713 21.2992C72.3652 21.2992 76 17.7588 76 13.3816C76 11.6436 75.4052 10.0343 74.48 8.74692C74.3478 9.39062 74.0174 10.0343 73.4887 10.6137C73.0261 11.0643 72.4974 11.3861 71.9026 11.5148C72.167 12.0942 72.3652 12.7379 72.3652 13.3816C72.3652 15.7633 70.3826 17.63 68.0035 17.63C65.5583 17.63 63.6417 15.6989 63.6417 13.3816C63.6417 10.9999 65.6243 9.13314 68.0035 9.13314C68.7304 9.13314 69.4574 9.32625 70.0522 9.6481C70.8452 10.0343 71.8365 9.84121 72.4313 9.13314C73.0261 8.29632 72.8939 7.20202 72.0348 6.55832C71.9687 6.49395 71.9026 6.42958 71.7704 6.42958C70.647 5.85024 69.3252 5.52839 68.0035 5.52839C63.5096 5.52839 59.8748 9.06877 59.8748 13.446C59.8087 17.7588 63.3774 21.2992 67.8713 21.2992Z" fill="#212529"/>
</svg>
